<mxfile host="app.diagrams.net" agent="Mozilla/5.0 (Windows NT 10.0; Win64; x64) AppleWebKit/537.36 (KHTML, like Gecko) Chrome/141.0.0.0 Safari/537.36" version="28.2.7">
  <diagram name="PÃ¡gina-1" id="tFCUTGB2Ean7XY36A_BH">
    <mxGraphModel dx="1590" dy="710" grid="1" gridSize="10" guides="1" tooltips="1" connect="1" arrows="1" fold="1" page="1" pageScale="1" pageWidth="827" pageHeight="1169" math="0" shadow="0">
      <root>
        <mxCell id="0" />
        <mxCell id="1" parent="0" />
        <mxCell id="sHWLW5Rp5QebHNMf11we-1" value="Smart - Health&lt;span style=&quot;color: rgba(0, 0, 0, 0); font-family: monospace; font-size: 0px; text-align: start; text-wrap-mode: nowrap;&quot;&gt;%3CmxGraphModel%3E%3Croot%3E%3CmxCell%20id%3D%220%22%2F%3E%3CmxCell%20id%3D%221%22%20parent%3D%220%22%2F%3E%3CmxCell%20id%3D%222%22%20value%3D%22%22%20style%3D%22line%3BstrokeWidth%3D2%3Bhtml%3D1%3B%22%20vertex%3D%221%22%20parent%3D%221%22%3E%3CmxGeometry%20x%3D%22190%22%20y%3D%22-259%22%20width%3D%22600%22%20height%3D%2210%22%20as%3D%22geometry%22%2F%3E%3C%2FmxCell%3E%3CmxCell%20id%3D%223%22%20value%3D%22Clients%22%20style%3D%22whiteSpace%3Dwrap%3Bhtml%3D1%3Balign%3Dcenter%3BfontSize%3D20%3BfontStyle%3D1%22%20vertex%3D%221%22%20parent%3D%221%22%3E%3CmxGeometry%20x%3D%22437%22%20y%3D%2260%22%20width%3D%22120%22%20height%3D%2240%22%20as%3D%22geometry%22%2F%3E%3C%2FmxCell%3E%3CmxCell%20id%3D%224%22%20style%3D%22edgeStyle%3DorthogonalEdgeStyle%3Brounded%3D0%3BorthogonalLoop%3D1%3BjettySize%3Dauto%3Bhtml%3D1%3BfontSize%3D15%3BendArrow%3Dnone%3BendFill%3D0%3B%22%20edge%3D%221%22%20target%3D%223%22%20parent%3D%221%22%3E%3CmxGeometry%20relative%3D%221%22%20as%3D%22geometry%22%3E%3CmxPoint%20x%3D%22497%22%20y%3D%22150%22%20as%3D%22sourcePoint%22%2F%3E%3C%2FmxGeometry%3E%3C%2FmxCell%3E%3CmxCell%20id%3D%225%22%20value%3D%22(1%2Cn)%22%20style%3D%22edgeLabel%3Bhtml%3D1%3Balign%3Dcenter%3BverticalAlign%3Dmiddle%3Bresizable%3D0%3Bpoints%3D%5B%5D%3BfontSize%3D15%3B%22%20vertex%3D%221%22%20connectable%3D%220%22%20parent%3D%221%22%3E%3CmxGeometry%20x%3D%22497.00142857142845%22%20y%3D%22120%22%20as%3D%22geometry%22%3E%3CmxPoint%20x%3D%22-2%22%20y%3D%22-2%22%20as%3D%22offset%22%2F%3E%3C%2FmxGeometry%3E%3C%2FmxCell%3E%3CmxCell%20id%3D%226%22%20value%3D%22ClientID%22%20style%3D%22ellipse%3BwhiteSpace%3Dwrap%3Bhtml%3D1%3Balign%3Dcenter%3BfontStyle%3D4%3BfontSize%3D15%3B%22%20vertex%3D%221%22%20parent%3D%221%22%3E%3CmxGeometry%20x%3D%22440%22%20y%3D%22-100%22%20width%3D%22100%22%20height%3D%2240%22%20as%3D%22geometry%22%2F%3E%3C%2FmxCell%3E%3CmxCell%20id%3D%227%22%20value%3D%22FullName%22%20style%3D%22ellipse%3BwhiteSpace%3Dwrap%3Bhtml%3D1%3Balign%3Dcenter%3Bdashed%3D1%3BfontSize%3D15%3B%22%20vertex%3D%221%22%20parent%3D%221%22%3E%3CmxGeometry%20x%3D%22610%22%20y%3D%22-80%22%20width%3D%22100%22%20height%3D%2240%22%20as%3D%22geometry%22%2F%3E%3C%2FmxCell%3E%3CmxCell%20id%3D%228%22%20value%3D%22BirthDate%22%20style%3D%22ellipse%3BwhiteSpace%3Dwrap%3Bhtml%3D1%3Balign%3Dcenter%3BfontSize%3D15%3B%22%20vertex%3D%221%22%20parent%3D%221%22%3E%3CmxGeometry%20x%3D%22333%22%20y%3D%22-60%22%20width%3D%22100%22%20height%3D%2240%22%20as%3D%22geometry%22%2F%3E%3C%2FmxCell%3E%3CmxCell%20id%3D%229%22%20value%3D%22Email%22%20style%3D%22ellipse%3BwhiteSpace%3Dwrap%3Bhtml%3D1%3Balign%3Dcenter%3BfontSize%3D15%3B%22%20vertex%3D%221%22%20parent%3D%221%22%3E%3CmxGeometry%20x%3D%22225%22%20y%3D%22-30%22%20width%3D%22100%22%20height%3D%2240%22%20as%3D%22geometry%22%2F%3E%3C%2FmxCell%3E%3CmxCell%20id%3D%2210%22%20value%3D%22PhoneNumber%22%20style%3D%22ellipse%3BwhiteSpace%3Dwrap%3Bhtml%3D1%3Balign%3Dcenter%3BfontSize%3D15%3B%22%20vertex%3D%221%22%20parent%3D%221%22%3E%3CmxGeometry%20x%3D%22658%22%20y%3D%2260%22%20width%3D%22120%22%20height%3D%2240%22%20as%3D%22geometry%22%2F%3E%3C%2FmxCell%3E%3CmxCell%20id%3D%2211%22%20value%3D%22Address%22%20style%3D%22ellipse%3BwhiteSpace%3Dwrap%3Bhtml%3D1%3Balign%3Dcenter%3BfontSize%3D15%3B%22%20vertex%3D%221%22%20parent%3D%221%22%3E%3CmxGeometry%20x%3D%22240%22%20y%3D%2260%22%20width%3D%22100%22%20height%3D%2240%22%20as%3D%22geometry%22%2F%3E%3C%2FmxCell%3E%3CmxCell%20id%3D%2212%22%20value%3D%22%22%20style%3D%22endArrow%3Dnone%3Bhtml%3D1%3Brounded%3D0%3BexitX%3D1%3BexitY%3D0%3BexitDx%3D0%3BexitDy%3D0%3BentryX%3D0.356%3BentryY%3D1.016%3BentryDx%3D0%3BentryDy%3D0%3BentryPerimeter%3D0%3B%22%20edge%3D%221%22%20source%3D%223%22%20target%3D%227%22%20parent%3D%221%22%3E%3CmxGeometry%20relative%3D%221%22%20as%3D%22geometry%22%3E%3CmxPoint%20x%3D%22650%22%20y%3D%22-60%22%20as%3D%22sourcePoint%22%2F%3E%3CmxPoint%20x%3D%22810%22%20y%3D%22-60%22%20as%3D%22targetPoint%22%2F%3E%3C%2FmxGeometry%3E%3C%2FmxCell%3E%3CmxCell%20id%3D%2213%22%20value%3D%22%22%20style%3D%22endArrow%3Dnone%3Bhtml%3D1%3Brounded%3D0%3BentryX%3D0.5%3BentryY%3D0%3BentryDx%3D0%3BentryDy%3D0%3BexitX%3D0.5%3BexitY%3D1%3BexitDx%3D0%3BexitDy%3D0%3B%22%20edge%3D%221%22%20source%3D%226%22%20target%3D%223%22%20parent%3D%221%22%3E%3CmxGeometry%20relative%3D%221%22%20as%3D%22geometry%22%3E%3CmxPoint%20x%3D%22500%22%20y%3D%22-59%22%20as%3D%22sourcePoint%22%2F%3E%3CmxPoint%20x%3D%22590%22%20y%3D%22-20%22%20as%3D%22targetPoint%22%2F%3E%3C%2FmxGeometry%3E%3C%2FmxCell%3E%3CmxCell%20id%3D%2214%22%20value%3D%22%22%20style%3D%22endArrow%3Dnone%3Bhtml%3D1%3Brounded%3D0%3BexitX%3D1%3BexitY%3D0.5%3BexitDx%3D0%3BexitDy%3D0%3BentryX%3D0.358%3BentryY%3D-0.007%3BentryDx%3D0%3BentryDy%3D0%3BentryPerimeter%3D0%3B%22%20edge%3D%221%22%20source%3D%228%22%20target%3D%223%22%20parent%3D%221%22%3E%3CmxGeometry%20relative%3D%221%22%20as%3D%22geometry%22%3E%3CmxPoint%20x%3D%22330%22%20y%3D%2220%22%20as%3D%22sourcePoint%22%2F%3E%3CmxPoint%20x%3D%22490%22%20y%3D%2220%22%20as%3D%22targetPoint%22%2F%3E%3C%2FmxGeometry%3E%3C%2FmxCell%3E%3CmxCell%20id%3D%2215%22%20value%3D%22%22%20style%3D%22endArrow%3Dnone%3Bhtml%3D1%3Brounded%3D0%3BexitX%3D1%3BexitY%3D0%3BexitDx%3D0%3BexitDy%3D0%3BentryX%3D0%3BentryY%3D0%3BentryDx%3D0%3BentryDy%3D0%3B%22%20edge%3D%221%22%20source%3D%229%22%20target%3D%223%22%20parent%3D%221%22%3E%3CmxGeometry%20relative%3D%221%22%20as%3D%22geometry%22%3E%3CmxPoint%20x%3D%22370%22%20y%3D%2230%22%20as%3D%22sourcePoint%22%2F%3E%3CmxPoint%20x%3D%22530%22%20y%3D%2230%22%20as%3D%22targetPoint%22%2F%3E%3C%2FmxGeometry%3E%3C%2FmxCell%3E%3CmxCell%20id%3D%2216%22%20value%3D%22%22%20style%3D%22endArrow%3Dnone%3Bhtml%3D1%3Brounded%3D0%3BexitX%3D1%3BexitY%3D0.5%3BexitDx%3D0%3BexitDy%3D0%3BentryX%3D0%3BentryY%3D0.5%3BentryDx%3D0%3BentryDy%3D0%3B%22%20edge%3D%221%22%20source%3D%2211%22%20target%3D%223%22%20parent%3D%221%22%3E%3CmxGeometry%20relative%3D%221%22%20as%3D%22geometry%22%3E%3CmxPoint%20x%3D%22360%22%20y%3D%2290%22%20as%3D%22sourcePoint%22%2F%3E%3CmxPoint%20x%3D%22520%22%20y%3D%2290%22%20as%3D%22targetPoint%22%2F%3E%3C%2FmxGeometry%3E%3C%2FmxCell%3E%3CmxCell%20id%3D%2217%22%20value%3D%22%22%20style%3D%22endArrow%3Dnone%3Bhtml%3D1%3Brounded%3D0%3BexitX%3D1%3BexitY%3D0.5%3BexitDx%3D0%3BexitDy%3D0%3B%22%20edge%3D%221%22%20source%3D%223%22%20target%3D%2210%22%20parent%3D%221%22%3E%3CmxGeometry%20relative%3D%221%22%20as%3D%22geometry%22%3E%3CmxPoint%20x%3D%22590%22%20y%3D%22120%22%20as%3D%22sourcePoint%22%2F%3E%3CmxPoint%20x%3D%22750%22%20y%3D%22120%22%20as%3D%22targetPoint%22%2F%3E%3C%2FmxGeometry%3E%3C%2FmxCell%3E%3CmxCell%20id%3D%2218%22%20value%3D%22FirstName%22%20style%3D%22ellipse%3BwhiteSpace%3Dwrap%3Bhtml%3D1%3Balign%3Dcenter%3BfontSize%3D15%3B%22%20vertex%3D%221%22%20parent%3D%221%22%3E%3CmxGeometry%20x%3D%22806%22%20y%3D%22-160%22%20width%3D%22100%22%20height%3D%2240%22%20as%3D%22geometry%22%2F%3E%3C%2FmxCell%3E%3CmxCell%20id%3D%2219%22%20value%3D%22LastName%22%20style%3D%22ellipse%3BwhiteSpace%3Dwrap%3Bhtml%3D1%3Balign%3Dcenter%3BfontSize%3D15%3B%22%20vertex%3D%221%22%20parent%3D%221%22%3E%3CmxGeometry%20x%3D%22804%22%20y%3D%22-30%22%20width%3D%22100%22%20height%3D%2240%22%20as%3D%22geometry%22%2F%3E%3C%2FmxCell%3E%3CmxCell%20id%3D%2220%22%20value%3D%22%22%20style%3D%22endArrow%3Dnone%3Bhtml%3D1%3Brounded%3D0%3BexitX%3D0.5%3BexitY%3D0%3BexitDx%3D0%3BexitDy%3D0%3BentryX%3D0%3BentryY%3D0.5%3BentryDx%3D0%3BentryDy%3D0%3B%22%20edge%3D%221%22%20source%3D%227%22%20target%3D%2218%22%20parent%3D%221%22%3E%3CmxGeometry%20relative%3D%221%22%20as%3D%22geometry%22%3E%3CmxPoint%20x%3D%22680%22%20y%3D%22-120%22%20as%3D%22sourcePoint%22%2F%3E%3CmxPoint%20x%3D%22840%22%20y%3D%22-120%22%20as%3D%22targetPoint%22%2F%3E%3C%2FmxGeometry%3E%3C%2FmxCell%3E%3CmxCell%20id%3D%2221%22%20value%3D%22%22%20style%3D%22endArrow%3Dnone%3Bhtml%3D1%3Brounded%3D0%3BexitX%3D0.605%3BexitY%3D0.992%3BexitDx%3D0%3BexitDy%3D0%3BentryX%3D0%3BentryY%3D0.5%3BentryDx%3D0%3BentryDy%3D0%3BexitPerimeter%3D0%3B%22%20edge%3D%221%22%20source%3D%227%22%20target%3D%2219%22%20parent%3D%221%22%3E%3CmxGeometry%20relative%3D%221%22%20as%3D%22geometry%22%3E%3CmxPoint%20x%3D%22740%22%20y%3D%22-20%22%20as%3D%22sourcePoint%22%2F%3E%3CmxPoint%20x%3D%22900%22%20y%3D%22-20%22%20as%3D%22targetPoint%22%2F%3E%3C%2FmxGeometry%3E%3C%2FmxCell%3E%3CmxCell%20id%3D%2222%22%20value%3D%22MiddleName%22%20style%3D%22ellipse%3BwhiteSpace%3Dwrap%3Bhtml%3D1%3Balign%3Dcenter%3BfontSize%3D15%3B%22%20vertex%3D%221%22%20parent%3D%221%22%3E%3CmxGeometry%20x%3D%22804%22%20y%3D%22-90%22%20width%3D%22100%22%20height%3D%2240%22%20as%3D%22geometry%22%2F%3E%3C%2FmxCell%3E%3CmxCell%20id%3D%2223%22%20value%3D%22%22%20style%3D%22endArrow%3Dnone%3Bhtml%3D1%3Brounded%3D0%3BexitX%3D1%3BexitY%3D0.5%3BexitDx%3D0%3BexitDy%3D0%3BentryX%3D0%3BentryY%3D0.5%3BentryDx%3D0%3BentryDy%3D0%3B%22%20edge%3D%221%22%20source%3D%227%22%20target%3D%2222%22%20parent%3D%221%22%3E%3CmxGeometry%20relative%3D%221%22%20as%3D%22geometry%22%3E%3CmxPoint%20x%3D%22710%22%20y%3D%22-40%22%20as%3D%22sourcePoint%22%2F%3E%3CmxPoint%20x%3D%22870%22%20y%3D%22-40%22%20as%3D%22targetPoint%22%2F%3E%3C%2FmxGeometry%3E%3C%2FmxCell%3E%3C%2Froot%3E%3C%2FmxGraphModel%3E&lt;/span&gt;" style="text;html=1;strokeColor=none;fillColor=none;align=center;verticalAlign=middle;whiteSpace=wrap;rounded=0;fontSize=40;" vertex="1" parent="1">
          <mxGeometry x="30" y="90" width="614" height="81" as="geometry" />
        </mxCell>
        <mxCell id="sHWLW5Rp5QebHNMf11we-2" value="" style="line;strokeWidth=2;html=1;" vertex="1" parent="1">
          <mxGeometry x="30" y="161" width="600" height="10" as="geometry" />
        </mxCell>
        <mxCell id="sHWLW5Rp5QebHNMf11we-4" value="patients" style="whiteSpace=wrap;html=1;align=center;fontSize=20;fontStyle=1" vertex="1" parent="1">
          <mxGeometry x="277" y="519" width="120" height="40" as="geometry" />
        </mxCell>
        <mxCell id="sHWLW5Rp5QebHNMf11we-5" style="edgeStyle=orthogonalEdgeStyle;rounded=0;orthogonalLoop=1;jettySize=auto;html=1;fontSize=15;endArrow=none;endFill=0;exitX=0.5;exitY=0;exitDx=0;exitDy=0;" edge="1" parent="1" target="sHWLW5Rp5QebHNMf11we-4" source="sHWLW5Rp5QebHNMf11we-80">
          <mxGeometry relative="1" as="geometry">
            <mxPoint x="337" y="609" as="sourcePoint" />
          </mxGeometry>
        </mxCell>
        <mxCell id="sHWLW5Rp5QebHNMf11we-8" value="full_name" style="ellipse;whiteSpace=wrap;html=1;align=center;fontSize=15;" vertex="1" parent="1">
          <mxGeometry x="450" y="379" width="100" height="40" as="geometry" />
        </mxCell>
        <mxCell id="sHWLW5Rp5QebHNMf11we-9" value="birth_date" style="ellipse;whiteSpace=wrap;html=1;align=center;fontSize=15;" vertex="1" parent="1">
          <mxGeometry x="460" y="259" width="100" height="40" as="geometry" />
        </mxCell>
        <mxCell id="sHWLW5Rp5QebHNMf11we-10" value="email" style="ellipse;whiteSpace=wrap;html=1;align=center;fontSize=15;" vertex="1" parent="1">
          <mxGeometry x="390" y="299" width="100" height="40" as="geometry" />
        </mxCell>
        <mxCell id="sHWLW5Rp5QebHNMf11we-11" value="registration_date" style="ellipse;whiteSpace=wrap;html=1;align=center;fontSize=15;" vertex="1" parent="1">
          <mxGeometry x="450" y="469" width="120" height="40" as="geometry" />
        </mxCell>
        <mxCell id="sHWLW5Rp5QebHNMf11we-13" value="" style="endArrow=none;html=1;rounded=0;exitX=1;exitY=0;exitDx=0;exitDy=0;entryX=0.356;entryY=1.016;entryDx=0;entryDy=0;entryPerimeter=0;" edge="1" parent="1" source="sHWLW5Rp5QebHNMf11we-4" target="sHWLW5Rp5QebHNMf11we-8">
          <mxGeometry relative="1" as="geometry">
            <mxPoint x="490" y="399" as="sourcePoint" />
            <mxPoint x="650" y="399" as="targetPoint" />
          </mxGeometry>
        </mxCell>
        <mxCell id="sHWLW5Rp5QebHNMf11we-14" value="" style="endArrow=none;html=1;rounded=0;entryX=0.5;entryY=0;entryDx=0;entryDy=0;exitX=0.5;exitY=1;exitDx=0;exitDy=0;" edge="1" parent="1" source="sHWLW5Rp5QebHNMf11we-7" target="sHWLW5Rp5QebHNMf11we-4">
          <mxGeometry relative="1" as="geometry">
            <mxPoint x="340" y="400" as="sourcePoint" />
            <mxPoint x="430" y="439" as="targetPoint" />
          </mxGeometry>
        </mxCell>
        <mxCell id="sHWLW5Rp5QebHNMf11we-15" value="" style="endArrow=none;html=1;rounded=0;exitX=0.5;exitY=1;exitDx=0;exitDy=0;" edge="1" parent="1" source="sHWLW5Rp5QebHNMf11we-9">
          <mxGeometry relative="1" as="geometry">
            <mxPoint x="170" y="479" as="sourcePoint" />
            <mxPoint x="360" y="519" as="targetPoint" />
          </mxGeometry>
        </mxCell>
        <mxCell id="sHWLW5Rp5QebHNMf11we-16" value="" style="endArrow=none;html=1;rounded=0;" edge="1" parent="1">
          <mxGeometry relative="1" as="geometry">
            <mxPoint x="440" y="340" as="sourcePoint" />
            <mxPoint x="350" y="520" as="targetPoint" />
          </mxGeometry>
        </mxCell>
        <mxCell id="sHWLW5Rp5QebHNMf11we-17" value="" style="endArrow=none;html=1;rounded=0;exitX=0.5;exitY=1;exitDx=0;exitDy=0;" edge="1" parent="1" source="sHWLW5Rp5QebHNMf11we-12">
          <mxGeometry relative="1" as="geometry">
            <mxPoint x="200" y="549" as="sourcePoint" />
            <mxPoint x="299" y="520" as="targetPoint" />
          </mxGeometry>
        </mxCell>
        <mxCell id="sHWLW5Rp5QebHNMf11we-18" value="" style="endArrow=none;html=1;rounded=0;exitX=1;exitY=0.5;exitDx=0;exitDy=0;entryX=0;entryY=0.5;entryDx=0;entryDy=0;" edge="1" parent="1" source="sHWLW5Rp5QebHNMf11we-4" target="sHWLW5Rp5QebHNMf11we-11">
          <mxGeometry relative="1" as="geometry">
            <mxPoint x="430" y="579" as="sourcePoint" />
            <mxPoint x="590" y="579" as="targetPoint" />
          </mxGeometry>
        </mxCell>
        <mxCell id="sHWLW5Rp5QebHNMf11we-19" value="first_name" style="ellipse;whiteSpace=wrap;html=1;align=center;fontSize=15;" vertex="1" parent="1">
          <mxGeometry x="646" y="299" width="100" height="40" as="geometry" />
        </mxCell>
        <mxCell id="sHWLW5Rp5QebHNMf11we-20" value="first_surname" style="ellipse;whiteSpace=wrap;html=1;align=center;fontSize=15;" vertex="1" parent="1">
          <mxGeometry x="644" y="429" width="100" height="40" as="geometry" />
        </mxCell>
        <mxCell id="sHWLW5Rp5QebHNMf11we-21" value="" style="endArrow=none;html=1;rounded=0;exitX=0.5;exitY=0;exitDx=0;exitDy=0;entryX=0;entryY=0.5;entryDx=0;entryDy=0;" edge="1" parent="1" source="sHWLW5Rp5QebHNMf11we-8" target="sHWLW5Rp5QebHNMf11we-19">
          <mxGeometry relative="1" as="geometry">
            <mxPoint x="520" y="339" as="sourcePoint" />
            <mxPoint x="680" y="339" as="targetPoint" />
          </mxGeometry>
        </mxCell>
        <mxCell id="sHWLW5Rp5QebHNMf11we-22" value="" style="endArrow=none;html=1;rounded=0;exitX=0.605;exitY=0.992;exitDx=0;exitDy=0;entryX=0;entryY=0.5;entryDx=0;entryDy=0;exitPerimeter=0;" edge="1" parent="1" source="sHWLW5Rp5QebHNMf11we-8" target="sHWLW5Rp5QebHNMf11we-20">
          <mxGeometry relative="1" as="geometry">
            <mxPoint x="580" y="439" as="sourcePoint" />
            <mxPoint x="740" y="439" as="targetPoint" />
          </mxGeometry>
        </mxCell>
        <mxCell id="sHWLW5Rp5QebHNMf11we-23" value="middle_name" style="ellipse;whiteSpace=wrap;html=1;align=center;fontSize=15;" vertex="1" parent="1">
          <mxGeometry x="644" y="369" width="100" height="40" as="geometry" />
        </mxCell>
        <mxCell id="sHWLW5Rp5QebHNMf11we-24" value="" style="endArrow=none;html=1;rounded=0;exitX=1;exitY=0.5;exitDx=0;exitDy=0;entryX=0;entryY=0.5;entryDx=0;entryDy=0;" edge="1" parent="1" source="sHWLW5Rp5QebHNMf11we-8" target="sHWLW5Rp5QebHNMf11we-23">
          <mxGeometry relative="1" as="geometry">
            <mxPoint x="550" y="419" as="sourcePoint" />
            <mxPoint x="710" y="419" as="targetPoint" />
          </mxGeometry>
        </mxCell>
        <mxCell id="sHWLW5Rp5QebHNMf11we-25" value="second_surname" style="ellipse;whiteSpace=wrap;html=1;align=center;fontSize=15;" vertex="1" parent="1">
          <mxGeometry x="646" y="500" width="134" height="40" as="geometry" />
        </mxCell>
        <mxCell id="sHWLW5Rp5QebHNMf11we-28" value="" style="endArrow=none;html=1;rounded=0;entryX=0.352;entryY=0.025;entryDx=0;entryDy=0;entryPerimeter=0;exitX=0.423;exitY=0.987;exitDx=0;exitDy=0;exitPerimeter=0;" edge="1" parent="1" source="sHWLW5Rp5QebHNMf11we-27" target="sHWLW5Rp5QebHNMf11we-4">
          <mxGeometry relative="1" as="geometry">
            <mxPoint x="310" y="290" as="sourcePoint" />
            <mxPoint x="322" y="570" as="targetPoint" />
          </mxGeometry>
        </mxCell>
        <mxCell id="sHWLW5Rp5QebHNMf11we-26" value="" style="endArrow=none;html=1;rounded=0;exitX=0.402;exitY=0.966;exitDx=0;exitDy=0;entryX=0;entryY=0.5;entryDx=0;entryDy=0;exitPerimeter=0;" edge="1" parent="1" target="sHWLW5Rp5QebHNMf11we-25" source="sHWLW5Rp5QebHNMf11we-8">
          <mxGeometry relative="1" as="geometry">
            <mxPoint x="295.9000000000001" y="429" as="sourcePoint" />
            <mxPoint x="742" y="479.52" as="targetPoint" />
          </mxGeometry>
        </mxCell>
        <mxCell id="sHWLW5Rp5QebHNMf11we-27" value="active" style="ellipse;whiteSpace=wrap;html=1;align=center;fontSize=15;" vertex="1" parent="1">
          <mxGeometry x="277" y="230" width="100" height="40" as="geometry" />
        </mxCell>
        <mxCell id="sHWLW5Rp5QebHNMf11we-7" value="patient_id" style="ellipse;whiteSpace=wrap;html=1;align=center;fontStyle=4;fontSize=15;" vertex="1" parent="1">
          <mxGeometry x="287" y="369" width="100" height="40" as="geometry" />
        </mxCell>
        <mxCell id="sHWLW5Rp5QebHNMf11we-12" value="gender" style="ellipse;whiteSpace=wrap;html=1;align=center;fontSize=15;" vertex="1" parent="1">
          <mxGeometry x="250" y="280" width="100" height="40" as="geometry" />
        </mxCell>
        <mxCell id="sHWLW5Rp5QebHNMf11we-31" value="document" style="ellipse;shape=doubleEllipse;margin=3;whiteSpace=wrap;html=1;align=center;fontSize=15;" vertex="1" parent="1">
          <mxGeometry x="160" y="339" width="100" height="40" as="geometry" />
        </mxCell>
        <mxCell id="sHWLW5Rp5QebHNMf11we-32" value="document_type_id" style="ellipse;whiteSpace=wrap;html=1;align=center;fontSize=15;" vertex="1" parent="1">
          <mxGeometry x="-30" y="209.5" width="150" height="40" as="geometry" />
        </mxCell>
        <mxCell id="sHWLW5Rp5QebHNMf11we-33" value="document_number" style="ellipse;whiteSpace=wrap;html=1;align=center;fontSize=15;" vertex="1" parent="1">
          <mxGeometry x="-30" y="270" width="150" height="40" as="geometry" />
        </mxCell>
        <mxCell id="sHWLW5Rp5QebHNMf11we-36" value="" style="endArrow=none;html=1;rounded=0;exitX=1;exitY=0.5;exitDx=0;exitDy=0;entryX=0.42;entryY=-0.018;entryDx=0;entryDy=0;entryPerimeter=0;" edge="1" parent="1" source="sHWLW5Rp5QebHNMf11we-32" target="sHWLW5Rp5QebHNMf11we-31">
          <mxGeometry width="50" height="50" relative="1" as="geometry">
            <mxPoint x="140" y="290" as="sourcePoint" />
            <mxPoint x="190" y="240" as="targetPoint" />
          </mxGeometry>
        </mxCell>
        <mxCell id="sHWLW5Rp5QebHNMf11we-37" value="" style="endArrow=none;html=1;rounded=0;exitX=1;exitY=0.5;exitDx=0;exitDy=0;entryX=0;entryY=0;entryDx=0;entryDy=0;" edge="1" parent="1" source="sHWLW5Rp5QebHNMf11we-33" target="sHWLW5Rp5QebHNMf11we-31">
          <mxGeometry width="50" height="50" relative="1" as="geometry">
            <mxPoint x="130" y="350" as="sourcePoint" />
            <mxPoint x="180" y="300" as="targetPoint" />
          </mxGeometry>
        </mxCell>
        <mxCell id="sHWLW5Rp5QebHNMf11we-38" value="" style="endArrow=none;html=1;rounded=0;entryX=0;entryY=0.5;entryDx=0;entryDy=0;exitX=1;exitY=0.5;exitDx=0;exitDy=0;" edge="1" parent="1" source="sHWLW5Rp5QebHNMf11we-34" target="sHWLW5Rp5QebHNMf11we-31">
          <mxGeometry width="50" height="50" relative="1" as="geometry">
            <mxPoint x="110" y="430" as="sourcePoint" />
            <mxPoint x="160" y="380" as="targetPoint" />
          </mxGeometry>
        </mxCell>
        <mxCell id="sHWLW5Rp5QebHNMf11we-39" value="" style="endArrow=none;html=1;rounded=0;entryX=0.368;entryY=0.966;entryDx=0;entryDy=0;entryPerimeter=0;exitX=1;exitY=0.5;exitDx=0;exitDy=0;" edge="1" parent="1" source="sHWLW5Rp5QebHNMf11we-35" target="sHWLW5Rp5QebHNMf11we-31">
          <mxGeometry width="50" height="50" relative="1" as="geometry">
            <mxPoint x="110" y="440" as="sourcePoint" />
            <mxPoint x="160" y="390" as="targetPoint" />
          </mxGeometry>
        </mxCell>
        <mxCell id="sHWLW5Rp5QebHNMf11we-40" value="" style="endArrow=none;html=1;rounded=0;exitX=0.094;exitY=-0.023;exitDx=0;exitDy=0;exitPerimeter=0;entryX=1;entryY=0.5;entryDx=0;entryDy=0;" edge="1" parent="1" source="sHWLW5Rp5QebHNMf11we-4" target="sHWLW5Rp5QebHNMf11we-31">
          <mxGeometry width="50" height="50" relative="1" as="geometry">
            <mxPoint x="230" y="460" as="sourcePoint" />
            <mxPoint x="254" y="370" as="targetPoint" />
          </mxGeometry>
        </mxCell>
        <mxCell id="sHWLW5Rp5QebHNMf11we-41" value="address" style="ellipse;shape=doubleEllipse;margin=3;whiteSpace=wrap;html=1;align=center;fontSize=15;" vertex="1" parent="1">
          <mxGeometry x="-245" y="538" width="100" height="40" as="geometry" />
        </mxCell>
        <mxCell id="sHWLW5Rp5QebHNMf11we-42" value="address_type" style="ellipse;whiteSpace=wrap;html=1;align=center;fontSize=15;" vertex="1" parent="1">
          <mxGeometry x="-425" y="469" width="150" height="40" as="geometry" />
        </mxCell>
        <mxCell id="sHWLW5Rp5QebHNMf11we-43" value="department" style="ellipse;whiteSpace=wrap;html=1;align=center;fontSize=15;" vertex="1" parent="1">
          <mxGeometry x="-425" y="538" width="150" height="40" as="geometry" />
        </mxCell>
        <mxCell id="sHWLW5Rp5QebHNMf11we-44" value="municipality" style="ellipse;whiteSpace=wrap;html=1;align=center;fontSize=15;" vertex="1" parent="1">
          <mxGeometry x="-425" y="598.5" width="150" height="40" as="geometry" />
        </mxCell>
        <mxCell id="sHWLW5Rp5QebHNMf11we-45" value="address_text" style="ellipse;whiteSpace=wrap;html=1;align=center;fontSize=15;" vertex="1" parent="1">
          <mxGeometry x="-425" y="648.5" width="150" height="40" as="geometry" />
        </mxCell>
        <mxCell id="sHWLW5Rp5QebHNMf11we-46" value="" style="endArrow=none;html=1;rounded=0;exitX=1;exitY=0.5;exitDx=0;exitDy=0;entryX=0.424;entryY=0.005;entryDx=0;entryDy=0;entryPerimeter=0;" edge="1" parent="1" source="sHWLW5Rp5QebHNMf11we-42" target="sHWLW5Rp5QebHNMf11we-41">
          <mxGeometry width="50" height="50" relative="1" as="geometry">
            <mxPoint x="-245" y="549.5" as="sourcePoint" />
            <mxPoint x="-195" y="499.5" as="targetPoint" />
            <Array as="points">
              <mxPoint x="-215" y="529" />
            </Array>
          </mxGeometry>
        </mxCell>
        <mxCell id="sHWLW5Rp5QebHNMf11we-47" value="" style="endArrow=none;html=1;rounded=0;exitX=1;exitY=0.5;exitDx=0;exitDy=0;entryX=0;entryY=0.5;entryDx=0;entryDy=0;" edge="1" parent="1" source="sHWLW5Rp5QebHNMf11we-43" target="sHWLW5Rp5QebHNMf11we-41">
          <mxGeometry width="50" height="50" relative="1" as="geometry">
            <mxPoint x="-255" y="609.5" as="sourcePoint" />
            <mxPoint x="-205" y="559.5" as="targetPoint" />
          </mxGeometry>
        </mxCell>
        <mxCell id="sHWLW5Rp5QebHNMf11we-48" value="" style="endArrow=none;html=1;rounded=0;exitX=1;exitY=0.5;exitDx=0;exitDy=0;entryX=0.037;entryY=0.707;entryDx=0;entryDy=0;entryPerimeter=0;" edge="1" parent="1" source="sHWLW5Rp5QebHNMf11we-44" target="sHWLW5Rp5QebHNMf11we-41">
          <mxGeometry width="50" height="50" relative="1" as="geometry">
            <mxPoint x="-275" y="689.5" as="sourcePoint" />
            <mxPoint x="-245" y="569" as="targetPoint" />
          </mxGeometry>
        </mxCell>
        <mxCell id="sHWLW5Rp5QebHNMf11we-49" value="" style="endArrow=none;html=1;rounded=0;entryX=0.125;entryY=0.841;entryDx=0;entryDy=0;entryPerimeter=0;exitX=1;exitY=0.5;exitDx=0;exitDy=0;" edge="1" parent="1" source="sHWLW5Rp5QebHNMf11we-45" target="sHWLW5Rp5QebHNMf11we-41">
          <mxGeometry width="50" height="50" relative="1" as="geometry">
            <mxPoint x="-275" y="699.5" as="sourcePoint" />
            <mxPoint x="-225" y="649.5" as="targetPoint" />
          </mxGeometry>
        </mxCell>
        <mxCell id="sHWLW5Rp5QebHNMf11we-50" value="coordinates_lat" style="ellipse;whiteSpace=wrap;html=1;align=center;fontSize=15;" vertex="1" parent="1">
          <mxGeometry x="-425" y="699" width="150" height="40" as="geometry" />
        </mxCell>
        <mxCell id="sHWLW5Rp5QebHNMf11we-51" value="coordinates_lon" style="ellipse;whiteSpace=wrap;html=1;align=center;fontSize=15;" vertex="1" parent="1">
          <mxGeometry x="-415" y="759.5" width="150" height="40" as="geometry" />
        </mxCell>
        <mxCell id="sHWLW5Rp5QebHNMf11we-52" value="postal_code" style="ellipse;whiteSpace=wrap;html=1;align=center;fontSize=15;" vertex="1" parent="1">
          <mxGeometry x="-415" y="819" width="150" height="40" as="geometry" />
        </mxCell>
        <mxCell id="sHWLW5Rp5QebHNMf11we-53" value="issue_date" style="ellipse;whiteSpace=wrap;html=1;align=center;fontSize=15;" vertex="1" parent="1">
          <mxGeometry x="-415" y="878.5" width="150" height="40" as="geometry" />
        </mxCell>
        <mxCell id="sHWLW5Rp5QebHNMf11we-54" value="" style="endArrow=none;html=1;rounded=0;entryX=0.346;entryY=0.976;entryDx=0;entryDy=0;exitX=1;exitY=0.5;exitDx=0;exitDy=0;entryPerimeter=0;" edge="1" parent="1" source="sHWLW5Rp5QebHNMf11we-50" target="sHWLW5Rp5QebHNMf11we-41">
          <mxGeometry width="50" height="50" relative="1" as="geometry">
            <mxPoint x="-275" y="919.5" as="sourcePoint" />
            <mxPoint x="-245" y="788" as="targetPoint" />
          </mxGeometry>
        </mxCell>
        <mxCell id="sHWLW5Rp5QebHNMf11we-55" value="" style="endArrow=none;html=1;rounded=0;entryX=0.525;entryY=0.999;entryDx=0;entryDy=0;entryPerimeter=0;exitX=0.944;exitY=0.317;exitDx=0;exitDy=0;exitPerimeter=0;" edge="1" parent="1" source="sHWLW5Rp5QebHNMf11we-51" target="sHWLW5Rp5QebHNMf11we-41">
          <mxGeometry width="50" height="50" relative="1" as="geometry">
            <mxPoint x="-235" y="669" as="sourcePoint" />
            <mxPoint x="-185" y="619" as="targetPoint" />
          </mxGeometry>
        </mxCell>
        <mxCell id="sHWLW5Rp5QebHNMf11we-56" value="" style="endArrow=none;html=1;rounded=0;entryX=-0.004;entryY=0.382;entryDx=0;entryDy=0;entryPerimeter=0;exitX=1;exitY=0.5;exitDx=0;exitDy=0;" edge="1" parent="1" source="sHWLW5Rp5QebHNMf11we-41" target="sHWLW5Rp5QebHNMf11we-4">
          <mxGeometry width="50" height="50" relative="1" as="geometry">
            <mxPoint x="140" y="540" as="sourcePoint" />
            <mxPoint x="190" y="490" as="targetPoint" />
          </mxGeometry>
        </mxCell>
        <mxCell id="sHWLW5Rp5QebHNMf11we-57" value="phone" style="ellipse;shape=doubleEllipse;margin=3;whiteSpace=wrap;html=1;align=center;fontSize=15;" vertex="1" parent="1">
          <mxGeometry x="120" y="600" width="100" height="40" as="geometry" />
        </mxCell>
        <mxCell id="sHWLW5Rp5QebHNMf11we-58" value="phone_type" style="ellipse;whiteSpace=wrap;html=1;align=center;fontSize=15;" vertex="1" parent="1">
          <mxGeometry x="40" y="689.25" width="90" height="30.5" as="geometry" />
        </mxCell>
        <mxCell id="sHWLW5Rp5QebHNMf11we-59" value="number" style="ellipse;whiteSpace=wrap;html=1;align=center;fontSize=15;" vertex="1" parent="1">
          <mxGeometry x="105" y="750.5" width="70" height="30" as="geometry" />
        </mxCell>
        <mxCell id="sHWLW5Rp5QebHNMf11we-60" value="is_primary" style="ellipse;whiteSpace=wrap;html=1;align=center;fontSize=15;" vertex="1" parent="1">
          <mxGeometry x="180" y="694.5" width="80" height="30" as="geometry" />
        </mxCell>
        <mxCell id="sHWLW5Rp5QebHNMf11we-62" value="" style="endArrow=none;html=1;rounded=0;exitX=0.5;exitY=0;exitDx=0;exitDy=0;entryX=0.452;entryY=0.996;entryDx=0;entryDy=0;entryPerimeter=0;" edge="1" parent="1" source="sHWLW5Rp5QebHNMf11we-58" target="sHWLW5Rp5QebHNMf11we-57">
          <mxGeometry width="50" height="50" relative="1" as="geometry">
            <mxPoint x="-5" y="744" as="sourcePoint" />
            <mxPoint x="45" y="694" as="targetPoint" />
          </mxGeometry>
        </mxCell>
        <mxCell id="sHWLW5Rp5QebHNMf11we-63" value="" style="endArrow=none;html=1;rounded=0;exitX=0.542;exitY=0.02;exitDx=0;exitDy=0;entryX=0.456;entryY=1.001;entryDx=0;entryDy=0;entryPerimeter=0;exitPerimeter=0;" edge="1" parent="1" source="sHWLW5Rp5QebHNMf11we-59" target="sHWLW5Rp5QebHNMf11we-57">
          <mxGeometry width="50" height="50" relative="1" as="geometry">
            <mxPoint x="-15" y="804" as="sourcePoint" />
            <mxPoint x="35" y="754" as="targetPoint" />
          </mxGeometry>
        </mxCell>
        <mxCell id="sHWLW5Rp5QebHNMf11we-64" value="" style="endArrow=none;html=1;rounded=0;entryX=0.469;entryY=0.985;entryDx=0;entryDy=0;exitX=0.538;exitY=0.035;exitDx=0;exitDy=0;exitPerimeter=0;entryPerimeter=0;" edge="1" parent="1" source="sHWLW5Rp5QebHNMf11we-60" target="sHWLW5Rp5QebHNMf11we-57">
          <mxGeometry width="50" height="50" relative="1" as="geometry">
            <mxPoint x="190" y="855" as="sourcePoint" />
            <mxPoint x="240" y="805" as="targetPoint" />
          </mxGeometry>
        </mxCell>
        <mxCell id="sHWLW5Rp5QebHNMf11we-67" value="" style="endArrow=none;html=1;rounded=0;entryX=0;entryY=1;entryDx=0;entryDy=0;exitX=0.5;exitY=0;exitDx=0;exitDy=0;" edge="1" parent="1" source="sHWLW5Rp5QebHNMf11we-57" target="sHWLW5Rp5QebHNMf11we-4">
          <mxGeometry width="50" height="50" relative="1" as="geometry">
            <mxPoint x="190" y="610" as="sourcePoint" />
            <mxPoint x="240" y="560" as="targetPoint" />
          </mxGeometry>
        </mxCell>
        <mxCell id="sHWLW5Rp5QebHNMf11we-68" value="emergency_contact" style="ellipse;shape=doubleEllipse;margin=3;whiteSpace=wrap;html=1;align=center;fontSize=15;" vertex="1" parent="1">
          <mxGeometry x="460" y="539" width="155" height="40" as="geometry" />
        </mxCell>
        <mxCell id="sHWLW5Rp5QebHNMf11we-69" value="name" style="ellipse;whiteSpace=wrap;html=1;align=center;fontSize=15;" vertex="1" parent="1">
          <mxGeometry x="425" y="619.5" width="90" height="30.5" as="geometry" />
        </mxCell>
        <mxCell id="sHWLW5Rp5QebHNMf11we-70" value="relationship" style="ellipse;whiteSpace=wrap;html=1;align=center;fontSize=15;" vertex="1" parent="1">
          <mxGeometry x="520" y="620" width="90" height="30" as="geometry" />
        </mxCell>
        <mxCell id="sHWLW5Rp5QebHNMf11we-71" value="phone" style="ellipse;whiteSpace=wrap;html=1;align=center;fontSize=15;" vertex="1" parent="1">
          <mxGeometry x="615" y="619.5" width="80" height="30" as="geometry" />
        </mxCell>
        <mxCell id="sHWLW5Rp5QebHNMf11we-72" value="" style="endArrow=none;html=1;rounded=0;exitX=0.5;exitY=0;exitDx=0;exitDy=0;entryX=0.274;entryY=0.955;entryDx=0;entryDy=0;entryPerimeter=0;" edge="1" parent="1" source="sHWLW5Rp5QebHNMf11we-69" target="sHWLW5Rp5QebHNMf11we-68">
          <mxGeometry width="50" height="50" relative="1" as="geometry">
            <mxPoint x="620" y="669.5" as="sourcePoint" />
            <mxPoint x="670" y="619.5" as="targetPoint" />
          </mxGeometry>
        </mxCell>
        <mxCell id="sHWLW5Rp5QebHNMf11we-73" value="" style="endArrow=none;html=1;rounded=0;exitX=0.542;exitY=0.02;exitDx=0;exitDy=0;entryX=0.535;entryY=1.01;entryDx=0;entryDy=0;entryPerimeter=0;exitPerimeter=0;" edge="1" parent="1" source="sHWLW5Rp5QebHNMf11we-70" target="sHWLW5Rp5QebHNMf11we-68">
          <mxGeometry width="50" height="50" relative="1" as="geometry">
            <mxPoint x="610" y="729.5" as="sourcePoint" />
            <mxPoint x="660" y="679.5" as="targetPoint" />
          </mxGeometry>
        </mxCell>
        <mxCell id="sHWLW5Rp5QebHNMf11we-74" value="" style="endArrow=none;html=1;rounded=0;entryX=0.815;entryY=0.891;entryDx=0;entryDy=0;entryPerimeter=0;" edge="1" parent="1" target="sHWLW5Rp5QebHNMf11we-68">
          <mxGeometry width="50" height="50" relative="1" as="geometry">
            <mxPoint x="650" y="620" as="sourcePoint" />
            <mxPoint x="640" y="759.5" as="targetPoint" />
          </mxGeometry>
        </mxCell>
        <mxCell id="sHWLW5Rp5QebHNMf11we-75" value="email" style="ellipse;whiteSpace=wrap;html=1;align=center;fontSize=15;" vertex="1" parent="1">
          <mxGeometry x="710" y="564" width="80" height="30" as="geometry" />
        </mxCell>
        <mxCell id="sHWLW5Rp5QebHNMf11we-76" value="instructions" style="ellipse;whiteSpace=wrap;html=1;align=center;fontSize=15;" vertex="1" parent="1">
          <mxGeometry x="705" y="609.5" width="90" height="30.5" as="geometry" />
        </mxCell>
        <mxCell id="sHWLW5Rp5QebHNMf11we-77" value="" style="endArrow=none;html=1;rounded=0;entryX=0.979;entryY=0.664;entryDx=0;entryDy=0;entryPerimeter=0;exitX=0.02;exitY=0.342;exitDx=0;exitDy=0;exitPerimeter=0;" edge="1" parent="1" source="sHWLW5Rp5QebHNMf11we-76" target="sHWLW5Rp5QebHNMf11we-68">
          <mxGeometry width="50" height="50" relative="1" as="geometry">
            <mxPoint x="480" y="710" as="sourcePoint" />
            <mxPoint x="530" y="660" as="targetPoint" />
          </mxGeometry>
        </mxCell>
        <mxCell id="sHWLW5Rp5QebHNMf11we-78" value="" style="endArrow=none;html=1;rounded=0;exitX=1;exitY=0.5;exitDx=0;exitDy=0;entryX=0;entryY=0.5;entryDx=0;entryDy=0;" edge="1" parent="1" source="sHWLW5Rp5QebHNMf11we-68" target="sHWLW5Rp5QebHNMf11we-75">
          <mxGeometry width="50" height="50" relative="1" as="geometry">
            <mxPoint x="630" y="600" as="sourcePoint" />
            <mxPoint x="680" y="550" as="targetPoint" />
          </mxGeometry>
        </mxCell>
        <mxCell id="sHWLW5Rp5QebHNMf11we-79" value="" style="endArrow=none;html=1;rounded=0;entryX=0.009;entryY=0.412;entryDx=0;entryDy=0;entryPerimeter=0;exitX=1;exitY=0.75;exitDx=0;exitDy=0;" edge="1" parent="1" source="sHWLW5Rp5QebHNMf11we-4" target="sHWLW5Rp5QebHNMf11we-68">
          <mxGeometry width="50" height="50" relative="1" as="geometry">
            <mxPoint x="420" y="590" as="sourcePoint" />
            <mxPoint x="470" y="540" as="targetPoint" />
          </mxGeometry>
        </mxCell>
        <mxCell id="sHWLW5Rp5QebHNMf11we-80" value="schedule" style="shape=rhombus;perimeter=rhombusPerimeter;whiteSpace=wrap;html=1;align=center;fontSize=20;fontStyle=2" vertex="1" parent="1">
          <mxGeometry x="267" y="690" width="140" height="60" as="geometry" />
        </mxCell>
        <mxCell id="sHWLW5Rp5QebHNMf11we-81" value="appointments" style="whiteSpace=wrap;html=1;align=center;fontSize=20;fontStyle=1" vertex="1" parent="1">
          <mxGeometry x="440" y="839.5" width="140" height="40" as="geometry" />
        </mxCell>
        <mxCell id="sHWLW5Rp5QebHNMf11we-82" value="" style="endArrow=none;html=1;rounded=0;exitX=0.5;exitY=1;exitDx=0;exitDy=0;entryX=0;entryY=0.5;entryDx=0;entryDy=0;" edge="1" parent="1" source="sHWLW5Rp5QebHNMf11we-80" target="sHWLW5Rp5QebHNMf11we-81">
          <mxGeometry width="50" height="50" relative="1" as="geometry">
            <mxPoint x="280" y="890" as="sourcePoint" />
            <mxPoint x="330" y="840" as="targetPoint" />
            <Array as="points">
              <mxPoint x="337" y="860" />
            </Array>
          </mxGeometry>
        </mxCell>
        <mxCell id="sHWLW5Rp5QebHNMf11we-83" value="&lt;b&gt;1:N&lt;/b&gt;" style="text;html=1;whiteSpace=wrap;strokeColor=none;fillColor=none;align=center;verticalAlign=middle;rounded=0;" vertex="1" parent="1">
          <mxGeometry x="397" y="705" width="60" height="30" as="geometry" />
        </mxCell>
        <mxCell id="sHWLW5Rp5QebHNMf11we-84" value="appointment_id" style="ellipse;whiteSpace=wrap;html=1;align=center;fontStyle=4;fontSize=15;" vertex="1" parent="1">
          <mxGeometry x="445" y="730.5" width="115" height="35" as="geometry" />
        </mxCell>
        <mxCell id="sHWLW5Rp5QebHNMf11we-85" value="appointment_date" style="ellipse;whiteSpace=wrap;html=1;align=center;fontSize=15;" vertex="1" parent="1">
          <mxGeometry x="623.5" y="720" width="145" height="30" as="geometry" />
        </mxCell>
        <mxCell id="sHWLW5Rp5QebHNMf11we-86" value="start_time" style="ellipse;whiteSpace=wrap;html=1;align=center;fontSize=15;" vertex="1" parent="1">
          <mxGeometry x="673" y="804.5" width="80" height="30" as="geometry" />
        </mxCell>
        <mxCell id="sHWLW5Rp5QebHNMf11we-87" value="end_time" style="ellipse;whiteSpace=wrap;html=1;align=center;fontSize=15;" vertex="1" parent="1">
          <mxGeometry x="673" y="840" width="80" height="30" as="geometry" />
        </mxCell>
        <mxCell id="sHWLW5Rp5QebHNMf11we-89" value="appointment_type" style="ellipse;whiteSpace=wrap;html=1;align=center;fontSize=15;" vertex="1" parent="1">
          <mxGeometry x="640.5" y="765.5" width="145" height="30" as="geometry" />
        </mxCell>
        <mxCell id="sHWLW5Rp5QebHNMf11we-90" value="status" style="ellipse;whiteSpace=wrap;html=1;align=center;fontSize=15;" vertex="1" parent="1">
          <mxGeometry x="673" y="874.5" width="80" height="30" as="geometry" />
        </mxCell>
        <mxCell id="sHWLW5Rp5QebHNMf11we-91" value="room" style="ellipse;whiteSpace=wrap;html=1;align=center;fontSize=15;" vertex="1" parent="1">
          <mxGeometry x="673" y="909.5" width="80" height="30" as="geometry" />
        </mxCell>
        <mxCell id="sHWLW5Rp5QebHNMf11we-92" value="reason" style="ellipse;whiteSpace=wrap;html=1;align=center;fontSize=15;" vertex="1" parent="1">
          <mxGeometry x="673" y="990" width="80" height="30" as="geometry" />
        </mxCell>
        <mxCell id="sHWLW5Rp5QebHNMf11we-93" value="created_by" style="ellipse;whiteSpace=wrap;html=1;align=center;fontSize=15;" vertex="1" parent="1">
          <mxGeometry x="673" y="950" width="80" height="30" as="geometry" />
        </mxCell>
        <mxCell id="sHWLW5Rp5QebHNMf11we-94" value="creation_date" style="ellipse;whiteSpace=wrap;html=1;align=center;fontSize=15;" vertex="1" parent="1">
          <mxGeometry x="663" y="1030" width="100" height="30" as="geometry" />
        </mxCell>
        <mxCell id="sHWLW5Rp5QebHNMf11we-95" value="" style="endArrow=none;html=1;rounded=0;entryX=0.5;entryY=1;entryDx=0;entryDy=0;exitX=0.446;exitY=-0.068;exitDx=0;exitDy=0;exitPerimeter=0;" edge="1" parent="1" source="sHWLW5Rp5QebHNMf11we-81" target="sHWLW5Rp5QebHNMf11we-84">
          <mxGeometry width="50" height="50" relative="1" as="geometry">
            <mxPoint x="590" y="890" as="sourcePoint" />
            <mxPoint x="640" y="840" as="targetPoint" />
          </mxGeometry>
        </mxCell>
        <mxCell id="sHWLW5Rp5QebHNMf11we-96" value="" style="endArrow=none;html=1;rounded=0;entryX=0;entryY=0.5;entryDx=0;entryDy=0;" edge="1" parent="1" source="sHWLW5Rp5QebHNMf11we-81" target="sHWLW5Rp5QebHNMf11we-85">
          <mxGeometry width="50" height="50" relative="1" as="geometry">
            <mxPoint x="610" y="880" as="sourcePoint" />
            <mxPoint x="660" y="830" as="targetPoint" />
          </mxGeometry>
        </mxCell>
        <mxCell id="sHWLW5Rp5QebHNMf11we-97" value="" style="endArrow=none;html=1;rounded=0;entryX=0;entryY=0.5;entryDx=0;entryDy=0;exitX=0.75;exitY=0;exitDx=0;exitDy=0;" edge="1" parent="1" source="sHWLW5Rp5QebHNMf11we-81" target="sHWLW5Rp5QebHNMf11we-89">
          <mxGeometry width="50" height="50" relative="1" as="geometry">
            <mxPoint x="580" y="870" as="sourcePoint" />
            <mxPoint x="630" y="820" as="targetPoint" />
          </mxGeometry>
        </mxCell>
        <mxCell id="sHWLW5Rp5QebHNMf11we-98" value="" style="endArrow=none;html=1;rounded=0;exitX=1;exitY=0.25;exitDx=0;exitDy=0;entryX=0;entryY=0.5;entryDx=0;entryDy=0;" edge="1" parent="1" source="sHWLW5Rp5QebHNMf11we-81" target="sHWLW5Rp5QebHNMf11we-86">
          <mxGeometry width="50" height="50" relative="1" as="geometry">
            <mxPoint x="590" y="860" as="sourcePoint" />
            <mxPoint x="640" y="810" as="targetPoint" />
          </mxGeometry>
        </mxCell>
        <mxCell id="sHWLW5Rp5QebHNMf11we-99" value="" style="endArrow=none;html=1;rounded=0;exitX=0.992;exitY=0.637;exitDx=0;exitDy=0;exitPerimeter=0;entryX=0;entryY=0.5;entryDx=0;entryDy=0;" edge="1" parent="1" source="sHWLW5Rp5QebHNMf11we-81" target="sHWLW5Rp5QebHNMf11we-87">
          <mxGeometry width="50" height="50" relative="1" as="geometry">
            <mxPoint x="590" y="890" as="sourcePoint" />
            <mxPoint x="640" y="840" as="targetPoint" />
          </mxGeometry>
        </mxCell>
        <mxCell id="sHWLW5Rp5QebHNMf11we-100" value="" style="endArrow=none;html=1;rounded=0;exitX=1.001;exitY=0.888;exitDx=0;exitDy=0;exitPerimeter=0;" edge="1" parent="1" source="sHWLW5Rp5QebHNMf11we-81" target="sHWLW5Rp5QebHNMf11we-90">
          <mxGeometry width="50" height="50" relative="1" as="geometry">
            <mxPoint x="610" y="920" as="sourcePoint" />
            <mxPoint x="660" y="870" as="targetPoint" />
          </mxGeometry>
        </mxCell>
        <mxCell id="sHWLW5Rp5QebHNMf11we-101" value="" style="endArrow=none;html=1;rounded=0;entryX=0;entryY=0.5;entryDx=0;entryDy=0;" edge="1" parent="1" target="sHWLW5Rp5QebHNMf11we-91">
          <mxGeometry width="50" height="50" relative="1" as="geometry">
            <mxPoint x="580" y="880" as="sourcePoint" />
            <mxPoint x="630" y="910" as="targetPoint" />
          </mxGeometry>
        </mxCell>
        <mxCell id="sHWLW5Rp5QebHNMf11we-102" value="" style="endArrow=none;html=1;rounded=0;exitX=0.854;exitY=0.997;exitDx=0;exitDy=0;exitPerimeter=0;entryX=0;entryY=0.5;entryDx=0;entryDy=0;" edge="1" parent="1" source="sHWLW5Rp5QebHNMf11we-81" target="sHWLW5Rp5QebHNMf11we-93">
          <mxGeometry width="50" height="50" relative="1" as="geometry">
            <mxPoint x="600" y="980" as="sourcePoint" />
            <mxPoint x="650" y="930" as="targetPoint" />
          </mxGeometry>
        </mxCell>
        <mxCell id="sHWLW5Rp5QebHNMf11we-103" value="" style="endArrow=none;html=1;rounded=0;exitX=0.75;exitY=1;exitDx=0;exitDy=0;entryX=0;entryY=0.5;entryDx=0;entryDy=0;" edge="1" parent="1" source="sHWLW5Rp5QebHNMf11we-81" target="sHWLW5Rp5QebHNMf11we-92">
          <mxGeometry width="50" height="50" relative="1" as="geometry">
            <mxPoint x="580" y="990" as="sourcePoint" />
            <mxPoint x="630" y="940" as="targetPoint" />
          </mxGeometry>
        </mxCell>
        <mxCell id="sHWLW5Rp5QebHNMf11we-104" value="" style="endArrow=none;html=1;rounded=0;entryX=0.643;entryY=1.015;entryDx=0;entryDy=0;entryPerimeter=0;exitX=0.015;exitY=0.41;exitDx=0;exitDy=0;exitPerimeter=0;" edge="1" parent="1" source="sHWLW5Rp5QebHNMf11we-94" target="sHWLW5Rp5QebHNMf11we-81">
          <mxGeometry width="50" height="50" relative="1" as="geometry">
            <mxPoint x="610" y="1050" as="sourcePoint" />
            <mxPoint x="660" y="1000" as="targetPoint" />
          </mxGeometry>
        </mxCell>
        <mxCell id="sHWLW5Rp5QebHNMf11we-105" value="doctors" style="whiteSpace=wrap;html=1;align=center;fontSize=20;fontStyle=1" vertex="1" parent="1">
          <mxGeometry x="450" y="1160" width="120" height="40" as="geometry" />
        </mxCell>
        <mxCell id="sHWLW5Rp5QebHNMf11we-106" value="attends" style="shape=rhombus;perimeter=rhombusPerimeter;whiteSpace=wrap;html=1;align=center;fontSize=20;fontStyle=2" vertex="1" parent="1">
          <mxGeometry x="267" y="960" width="140" height="60" as="geometry" />
        </mxCell>
        <mxCell id="sHWLW5Rp5QebHNMf11we-107" value="" style="endArrow=none;html=1;rounded=0;exitX=0.5;exitY=0;exitDx=0;exitDy=0;" edge="1" parent="1">
          <mxGeometry width="50" height="50" relative="1" as="geometry">
            <mxPoint x="337" y="961" as="sourcePoint" />
            <mxPoint x="440" y="870" as="targetPoint" />
            <Array as="points">
              <mxPoint x="337" y="870" />
            </Array>
          </mxGeometry>
        </mxCell>
        <mxCell id="sHWLW5Rp5QebHNMf11we-108" value="" style="endArrow=none;html=1;rounded=0;entryX=0.5;entryY=1;entryDx=0;entryDy=0;exitX=0;exitY=0.5;exitDx=0;exitDy=0;" edge="1" parent="1" source="sHWLW5Rp5QebHNMf11we-105" target="sHWLW5Rp5QebHNMf11we-106">
          <mxGeometry width="50" height="50" relative="1" as="geometry">
            <mxPoint x="350" y="1110" as="sourcePoint" />
            <mxPoint x="400" y="1060" as="targetPoint" />
            <Array as="points">
              <mxPoint x="337" y="1180" />
            </Array>
          </mxGeometry>
        </mxCell>
        <mxCell id="sHWLW5Rp5QebHNMf11we-109" value="doctor_id" style="ellipse;whiteSpace=wrap;html=1;align=center;fontStyle=4;fontSize=15;" vertex="1" parent="1">
          <mxGeometry x="450" y="1060" width="115" height="35" as="geometry" />
        </mxCell>
        <mxCell id="sHWLW5Rp5QebHNMf11we-110" value="internal_code" style="ellipse;whiteSpace=wrap;html=1;align=center;fontSize=15;" vertex="1" parent="1">
          <mxGeometry x="679.75" y="1080" width="145" height="30" as="geometry" />
        </mxCell>
        <mxCell id="sHWLW5Rp5QebHNMf11we-111" value="names" style="ellipse;whiteSpace=wrap;html=1;align=center;fontSize=15;" vertex="1" parent="1">
          <mxGeometry x="729.25" y="1164.5" width="80" height="30" as="geometry" />
        </mxCell>
        <mxCell id="sHWLW5Rp5QebHNMf11we-112" value="surnames" style="ellipse;whiteSpace=wrap;html=1;align=center;fontSize=15;" vertex="1" parent="1">
          <mxGeometry x="744" y="1200" width="80" height="30" as="geometry" />
        </mxCell>
        <mxCell id="sHWLW5Rp5QebHNMf11we-113" value="medical_license_number" style="ellipse;whiteSpace=wrap;html=1;align=center;fontSize=15;" vertex="1" parent="1">
          <mxGeometry x="696.75" y="1125.5" width="183.25" height="34.5" as="geometry" />
        </mxCell>
        <mxCell id="sHWLW5Rp5QebHNMf11we-114" value="professional_email" style="ellipse;whiteSpace=wrap;html=1;align=center;fontSize=15;" vertex="1" parent="1">
          <mxGeometry x="708.63" y="1234.5" width="150.75" height="25.5" as="geometry" />
        </mxCell>
        <mxCell id="sHWLW5Rp5QebHNMf11we-115" value="hospital_admission_date" style="ellipse;whiteSpace=wrap;html=1;align=center;fontSize=15;" vertex="1" parent="1">
          <mxGeometry x="720" y="1269.5" width="180.75" height="30.5" as="geometry" />
        </mxCell>
        <mxCell id="sHWLW5Rp5QebHNMf11we-116" value="active" style="ellipse;whiteSpace=wrap;html=1;align=center;fontSize=15;" vertex="1" parent="1">
          <mxGeometry x="740" y="1300" width="80" height="30" as="geometry" />
        </mxCell>
        <mxCell id="sHWLW5Rp5QebHNMf11we-117" value="" style="endArrow=none;html=1;rounded=0;entryX=0;entryY=0.5;entryDx=0;entryDy=0;exitX=1;exitY=0;exitDx=0;exitDy=0;" edge="1" parent="1" target="sHWLW5Rp5QebHNMf11we-110" source="sHWLW5Rp5QebHNMf11we-105">
          <mxGeometry width="50" height="50" relative="1" as="geometry">
            <mxPoint x="584.25" y="1200" as="sourcePoint" />
            <mxPoint x="716.25" y="1190" as="targetPoint" />
          </mxGeometry>
        </mxCell>
        <mxCell id="sHWLW5Rp5QebHNMf11we-118" value="" style="endArrow=none;html=1;rounded=0;entryX=0;entryY=0.5;entryDx=0;entryDy=0;exitX=1.006;exitY=0.065;exitDx=0;exitDy=0;exitPerimeter=0;" edge="1" parent="1" target="sHWLW5Rp5QebHNMf11we-113" source="sHWLW5Rp5QebHNMf11we-105">
          <mxGeometry width="50" height="50" relative="1" as="geometry">
            <mxPoint x="601.25" y="1200" as="sourcePoint" />
            <mxPoint x="686.25" y="1180" as="targetPoint" />
          </mxGeometry>
        </mxCell>
        <mxCell id="sHWLW5Rp5QebHNMf11we-119" value="" style="endArrow=none;html=1;rounded=0;exitX=1.002;exitY=0.176;exitDx=0;exitDy=0;entryX=0;entryY=0.5;entryDx=0;entryDy=0;exitPerimeter=0;" edge="1" parent="1" target="sHWLW5Rp5QebHNMf11we-111" source="sHWLW5Rp5QebHNMf11we-105">
          <mxGeometry width="50" height="50" relative="1" as="geometry">
            <mxPoint x="636.25" y="1210" as="sourcePoint" />
            <mxPoint x="696.25" y="1170" as="targetPoint" />
          </mxGeometry>
        </mxCell>
        <mxCell id="sHWLW5Rp5QebHNMf11we-120" value="" style="endArrow=none;html=1;rounded=0;exitX=1;exitY=0.25;exitDx=0;exitDy=0;entryX=0;entryY=0.5;entryDx=0;entryDy=0;" edge="1" parent="1" target="sHWLW5Rp5QebHNMf11we-112" source="sHWLW5Rp5QebHNMf11we-105">
          <mxGeometry width="50" height="50" relative="1" as="geometry">
            <mxPoint x="635.25" y="1225" as="sourcePoint" />
            <mxPoint x="696.25" y="1200" as="targetPoint" />
          </mxGeometry>
        </mxCell>
        <mxCell id="sHWLW5Rp5QebHNMf11we-121" value="" style="endArrow=none;html=1;rounded=0;exitX=1.002;exitY=0.446;exitDx=0;exitDy=0;exitPerimeter=0;entryX=0;entryY=0;entryDx=0;entryDy=0;" edge="1" parent="1" target="sHWLW5Rp5QebHNMf11we-114" source="sHWLW5Rp5QebHNMf11we-105">
          <mxGeometry width="50" height="50" relative="1" as="geometry">
            <mxPoint x="636.25" y="1235" as="sourcePoint" />
            <mxPoint x="716.25" y="1230" as="targetPoint" />
          </mxGeometry>
        </mxCell>
        <mxCell id="sHWLW5Rp5QebHNMf11we-122" value="" style="endArrow=none;html=1;rounded=0;entryX=0.12;entryY=0.181;entryDx=0;entryDy=0;exitX=1.002;exitY=0.589;exitDx=0;exitDy=0;exitPerimeter=0;entryPerimeter=0;" edge="1" parent="1" target="sHWLW5Rp5QebHNMf11we-115" source="sHWLW5Rp5QebHNMf11we-105">
          <mxGeometry width="50" height="50" relative="1" as="geometry">
            <mxPoint x="636.25" y="1240" as="sourcePoint" />
            <mxPoint x="686.25" y="1270" as="targetPoint" />
          </mxGeometry>
        </mxCell>
        <mxCell id="sHWLW5Rp5QebHNMf11we-123" value="" style="endArrow=none;html=1;rounded=0;exitX=1;exitY=0.816;exitDx=0;exitDy=0;exitPerimeter=0;entryX=0;entryY=0.5;entryDx=0;entryDy=0;" edge="1" parent="1" target="sHWLW5Rp5QebHNMf11we-116" source="sHWLW5Rp5QebHNMf11we-105">
          <mxGeometry width="50" height="50" relative="1" as="geometry">
            <mxPoint x="616.25" y="1239" as="sourcePoint" />
            <mxPoint x="706.25" y="1290" as="targetPoint" />
          </mxGeometry>
        </mxCell>
        <mxCell id="sHWLW5Rp5QebHNMf11we-124" value="" style="endArrow=none;html=1;rounded=0;exitX=0.476;exitY=0.003;exitDx=0;exitDy=0;exitPerimeter=0;entryX=0.5;entryY=1;entryDx=0;entryDy=0;" edge="1" parent="1" source="sHWLW5Rp5QebHNMf11we-105" target="sHWLW5Rp5QebHNMf11we-109">
          <mxGeometry width="50" height="50" relative="1" as="geometry">
            <mxPoint x="530" y="1150" as="sourcePoint" />
            <mxPoint x="580" y="1100" as="targetPoint" />
          </mxGeometry>
        </mxCell>
        <mxCell id="sHWLW5Rp5QebHNMf11we-125" value="practice_address" style="ellipse;shape=doubleEllipse;margin=3;whiteSpace=wrap;html=1;align=center;fontSize=15;" vertex="1" parent="1">
          <mxGeometry x="430" y="1280" width="140" height="40" as="geometry" />
        </mxCell>
        <mxCell id="sHWLW5Rp5QebHNMf11we-126" value="type" style="ellipse;whiteSpace=wrap;html=1;align=center;fontSize=15;" vertex="1" parent="1">
          <mxGeometry x="370" y="1330" width="65" height="30.5" as="geometry" />
        </mxCell>
        <mxCell id="sHWLW5Rp5QebHNMf11we-127" value="department" style="ellipse;whiteSpace=wrap;html=1;align=center;fontSize=15;" vertex="1" parent="1">
          <mxGeometry x="400" y="1360.5" width="90" height="30" as="geometry" />
        </mxCell>
        <mxCell id="sHWLW5Rp5QebHNMf11we-128" value="municipality" style="ellipse;whiteSpace=wrap;html=1;align=center;fontSize=15;" vertex="1" parent="1">
          <mxGeometry x="480" y="1340" width="80" height="30" as="geometry" />
        </mxCell>
        <mxCell id="sHWLW5Rp5QebHNMf11we-129" value="" style="endArrow=none;html=1;rounded=0;exitX=0.5;exitY=0;exitDx=0;exitDy=0;entryX=0.274;entryY=0.955;entryDx=0;entryDy=0;entryPerimeter=0;" edge="1" parent="1" source="sHWLW5Rp5QebHNMf11we-126" target="sHWLW5Rp5QebHNMf11we-125">
          <mxGeometry width="50" height="50" relative="1" as="geometry">
            <mxPoint x="535" y="1410.5" as="sourcePoint" />
            <mxPoint x="585" y="1360.5" as="targetPoint" />
          </mxGeometry>
        </mxCell>
        <mxCell id="sHWLW5Rp5QebHNMf11we-130" value="" style="endArrow=none;html=1;rounded=0;exitX=0.542;exitY=0.02;exitDx=0;exitDy=0;entryX=0.535;entryY=1.01;entryDx=0;entryDy=0;entryPerimeter=0;exitPerimeter=0;" edge="1" parent="1" source="sHWLW5Rp5QebHNMf11we-127" target="sHWLW5Rp5QebHNMf11we-125">
          <mxGeometry width="50" height="50" relative="1" as="geometry">
            <mxPoint x="525" y="1470.5" as="sourcePoint" />
            <mxPoint x="575" y="1420.5" as="targetPoint" />
          </mxGeometry>
        </mxCell>
        <mxCell id="sHWLW5Rp5QebHNMf11we-131" value="" style="endArrow=none;html=1;rounded=0;entryX=0.595;entryY=0.971;entryDx=0;entryDy=0;entryPerimeter=0;exitX=0.5;exitY=0;exitDx=0;exitDy=0;" edge="1" parent="1" target="sHWLW5Rp5QebHNMf11we-125" source="sHWLW5Rp5QebHNMf11we-128">
          <mxGeometry width="50" height="50" relative="1" as="geometry">
            <mxPoint x="565" y="1361" as="sourcePoint" />
            <mxPoint x="555" y="1500.5" as="targetPoint" />
          </mxGeometry>
        </mxCell>
        <mxCell id="sHWLW5Rp5QebHNMf11we-132" value="office_hours" style="ellipse;whiteSpace=wrap;html=1;align=center;fontSize=15;" vertex="1" parent="1">
          <mxGeometry x="578" y="1320" width="85" height="25" as="geometry" />
        </mxCell>
        <mxCell id="sHWLW5Rp5QebHNMf11we-133" value="address_text" style="ellipse;whiteSpace=wrap;html=1;align=center;fontSize=15;" vertex="1" parent="1">
          <mxGeometry x="550" y="1365.25" width="90" height="30.5" as="geometry" />
        </mxCell>
        <mxCell id="sHWLW5Rp5QebHNMf11we-134" value="" style="endArrow=none;html=1;rounded=0;entryX=0.774;entryY=0.914;entryDx=0;entryDy=0;entryPerimeter=0;exitX=0.5;exitY=0;exitDx=0;exitDy=0;" edge="1" parent="1" source="sHWLW5Rp5QebHNMf11we-133" target="sHWLW5Rp5QebHNMf11we-125">
          <mxGeometry width="50" height="50" relative="1" as="geometry">
            <mxPoint x="395" y="1451" as="sourcePoint" />
            <mxPoint x="445" y="1401" as="targetPoint" />
          </mxGeometry>
        </mxCell>
        <mxCell id="sHWLW5Rp5QebHNMf11we-135" value="" style="endArrow=none;html=1;rounded=0;exitX=0.941;exitY=0.743;exitDx=0;exitDy=0;entryX=0.5;entryY=0;entryDx=0;entryDy=0;exitPerimeter=0;" edge="1" parent="1" source="sHWLW5Rp5QebHNMf11we-125" target="sHWLW5Rp5QebHNMf11we-132">
          <mxGeometry width="50" height="50" relative="1" as="geometry">
            <mxPoint x="545" y="1341" as="sourcePoint" />
            <mxPoint x="595" y="1291" as="targetPoint" />
          </mxGeometry>
        </mxCell>
        <mxCell id="sHWLW5Rp5QebHNMf11we-136" value="" style="endArrow=none;html=1;rounded=0;entryX=0.535;entryY=0.003;entryDx=0;entryDy=0;exitX=0.5;exitY=1;exitDx=0;exitDy=0;entryPerimeter=0;" edge="1" parent="1" target="sHWLW5Rp5QebHNMf11we-125" source="sHWLW5Rp5QebHNMf11we-105">
          <mxGeometry width="50" height="50" relative="1" as="geometry">
            <mxPoint x="312" y="1290" as="sourcePoint" />
            <mxPoint x="385" y="1281" as="targetPoint" />
          </mxGeometry>
        </mxCell>
        <mxCell id="sHWLW5Rp5QebHNMf11we-137" value="phone" style="ellipse;shape=doubleEllipse;margin=3;whiteSpace=wrap;html=1;align=center;fontSize=15;" vertex="1" parent="1">
          <mxGeometry x="685.5" y="1335" width="100" height="40" as="geometry" />
        </mxCell>
        <mxCell id="sHWLW5Rp5QebHNMf11we-138" value="phone_type" style="ellipse;whiteSpace=wrap;html=1;align=center;fontSize=15;" vertex="1" parent="1">
          <mxGeometry x="663" y="1395.75" width="90" height="30.5" as="geometry" />
        </mxCell>
        <mxCell id="sHWLW5Rp5QebHNMf11we-139" value="number" style="ellipse;whiteSpace=wrap;html=1;align=center;fontSize=15;" vertex="1" parent="1">
          <mxGeometry x="768.5" y="1390.5" width="90" height="30" as="geometry" />
        </mxCell>
        <mxCell id="sHWLW5Rp5QebHNMf11we-140" value="" style="endArrow=none;html=1;rounded=0;exitX=0.5;exitY=0;exitDx=0;exitDy=0;entryX=0.5;entryY=1;entryDx=0;entryDy=0;" edge="1" parent="1" source="sHWLW5Rp5QebHNMf11we-138" target="sHWLW5Rp5QebHNMf11we-137">
          <mxGeometry width="50" height="50" relative="1" as="geometry">
            <mxPoint x="869" y="1491" as="sourcePoint" />
            <mxPoint x="919" y="1441" as="targetPoint" />
          </mxGeometry>
        </mxCell>
        <mxCell id="sHWLW5Rp5QebHNMf11we-141" value="" style="endArrow=none;html=1;rounded=0;exitX=0.542;exitY=0.02;exitDx=0;exitDy=0;entryX=0.535;entryY=1.01;entryDx=0;entryDy=0;entryPerimeter=0;exitPerimeter=0;" edge="1" parent="1" source="sHWLW5Rp5QebHNMf11we-139" target="sHWLW5Rp5QebHNMf11we-137">
          <mxGeometry width="50" height="50" relative="1" as="geometry">
            <mxPoint x="859" y="1551" as="sourcePoint" />
            <mxPoint x="909" y="1501" as="targetPoint" />
          </mxGeometry>
        </mxCell>
        <mxCell id="sHWLW5Rp5QebHNMf11we-143" value="" style="endArrow=none;html=1;rounded=0;entryX=0.75;entryY=1;entryDx=0;entryDy=0;exitX=0;exitY=0;exitDx=0;exitDy=0;" edge="1" parent="1" source="sHWLW5Rp5QebHNMf11we-137" target="sHWLW5Rp5QebHNMf11we-105">
          <mxGeometry width="50" height="50" relative="1" as="geometry">
            <mxPoint x="610" y="1290" as="sourcePoint" />
            <mxPoint x="660" y="1240" as="targetPoint" />
          </mxGeometry>
        </mxCell>
        <mxCell id="sHWLW5Rp5QebHNMf11we-144" value="schedule" style="ellipse;shape=doubleEllipse;margin=3;whiteSpace=wrap;html=1;align=center;fontSize=15;" vertex="1" parent="1">
          <mxGeometry x="270" y="1355.5" width="100" height="40" as="geometry" />
        </mxCell>
        <mxCell id="sHWLW5Rp5QebHNMf11we-145" value="day_of_week" style="ellipse;whiteSpace=wrap;html=1;align=center;fontSize=15;" vertex="1" parent="1">
          <mxGeometry x="85" y="1310" width="150" height="40" as="geometry" />
        </mxCell>
        <mxCell id="sHWLW5Rp5QebHNMf11we-146" value="start_time" style="ellipse;whiteSpace=wrap;html=1;align=center;fontSize=15;" vertex="1" parent="1">
          <mxGeometry x="85" y="1370.5" width="150" height="40" as="geometry" />
        </mxCell>
        <mxCell id="sHWLW5Rp5QebHNMf11we-147" value="end_time" style="ellipse;whiteSpace=wrap;html=1;align=center;fontSize=15;" vertex="1" parent="1">
          <mxGeometry x="85" y="1426.25" width="150" height="40" as="geometry" />
        </mxCell>
        <mxCell id="sHWLW5Rp5QebHNMf11we-148" value="modality" style="ellipse;whiteSpace=wrap;html=1;align=center;fontSize=15;" vertex="1" parent="1">
          <mxGeometry x="85" y="1489.5" width="150" height="40" as="geometry" />
        </mxCell>
        <mxCell id="sHWLW5Rp5QebHNMf11we-149" value="" style="endArrow=none;html=1;rounded=0;exitX=1;exitY=0.5;exitDx=0;exitDy=0;entryX=0.289;entryY=0.052;entryDx=0;entryDy=0;entryPerimeter=0;" edge="1" parent="1" source="sHWLW5Rp5QebHNMf11we-145" target="sHWLW5Rp5QebHNMf11we-144">
          <mxGeometry width="50" height="50" relative="1" as="geometry">
            <mxPoint x="255" y="1390.5" as="sourcePoint" />
            <mxPoint x="305" y="1340.5" as="targetPoint" />
          </mxGeometry>
        </mxCell>
        <mxCell id="sHWLW5Rp5QebHNMf11we-150" value="" style="endArrow=none;html=1;rounded=0;exitX=1;exitY=0.5;exitDx=0;exitDy=0;entryX=-0.002;entryY=0.541;entryDx=0;entryDy=0;entryPerimeter=0;" edge="1" parent="1" source="sHWLW5Rp5QebHNMf11we-146" target="sHWLW5Rp5QebHNMf11we-144">
          <mxGeometry width="50" height="50" relative="1" as="geometry">
            <mxPoint x="245" y="1450.5" as="sourcePoint" />
            <mxPoint x="295" y="1400.5" as="targetPoint" />
          </mxGeometry>
        </mxCell>
        <mxCell id="sHWLW5Rp5QebHNMf11we-151" value="" style="endArrow=none;html=1;rounded=0;entryX=0;entryY=1;entryDx=0;entryDy=0;exitX=1;exitY=0.5;exitDx=0;exitDy=0;" edge="1" parent="1" source="sHWLW5Rp5QebHNMf11we-147" target="sHWLW5Rp5QebHNMf11we-144">
          <mxGeometry width="50" height="50" relative="1" as="geometry">
            <mxPoint x="225" y="1530.5" as="sourcePoint" />
            <mxPoint x="275" y="1480.5" as="targetPoint" />
          </mxGeometry>
        </mxCell>
        <mxCell id="sHWLW5Rp5QebHNMf11we-152" value="" style="endArrow=none;html=1;rounded=0;entryX=0.339;entryY=0.982;entryDx=0;entryDy=0;entryPerimeter=0;exitX=1;exitY=0.5;exitDx=0;exitDy=0;" edge="1" parent="1" source="sHWLW5Rp5QebHNMf11we-148" target="sHWLW5Rp5QebHNMf11we-144">
          <mxGeometry width="50" height="50" relative="1" as="geometry">
            <mxPoint x="225" y="1540.5" as="sourcePoint" />
            <mxPoint x="275" y="1490.5" as="targetPoint" />
          </mxGeometry>
        </mxCell>
        <mxCell id="sHWLW5Rp5QebHNMf11we-153" value="" style="endArrow=none;html=1;rounded=0;entryX=0.25;entryY=1;entryDx=0;entryDy=0;exitX=0.5;exitY=0;exitDx=0;exitDy=0;" edge="1" parent="1" source="sHWLW5Rp5QebHNMf11we-144" target="sHWLW5Rp5QebHNMf11we-105">
          <mxGeometry width="50" height="50" relative="1" as="geometry">
            <mxPoint x="340" y="1290" as="sourcePoint" />
            <mxPoint x="390" y="1240" as="targetPoint" />
          </mxGeometry>
        </mxCell>
        <mxCell id="sHWLW5Rp5QebHNMf11we-154" value="speciality" style="ellipse;shape=doubleEllipse;margin=3;whiteSpace=wrap;html=1;align=center;fontSize=15;" vertex="1" parent="1">
          <mxGeometry x="370" y="1100" width="100" height="40" as="geometry" />
        </mxCell>
        <mxCell id="sHWLW5Rp5QebHNMf11we-155" value="" style="endArrow=none;html=1;rounded=0;exitX=0.706;exitY=0.966;exitDx=0;exitDy=0;exitPerimeter=0;entryX=0.163;entryY=0.004;entryDx=0;entryDy=0;entryPerimeter=0;" edge="1" parent="1" source="sHWLW5Rp5QebHNMf11we-154" target="sHWLW5Rp5QebHNMf11we-105">
          <mxGeometry width="50" height="50" relative="1" as="geometry">
            <mxPoint x="470" y="1170" as="sourcePoint" />
            <mxPoint x="520" y="1120" as="targetPoint" />
          </mxGeometry>
        </mxCell>
        <mxCell id="sHWLW5Rp5QebHNMf11we-157" value="" style="endArrow=none;html=1;rounded=0;entryX=1;entryY=0.5;entryDx=0;entryDy=0;exitX=0;exitY=0.25;exitDx=0;exitDy=0;" edge="1" parent="1" source="sHWLW5Rp5QebHNMf11we-4" target="sHWLW5Rp5QebHNMf11we-158">
          <mxGeometry width="50" height="50" relative="1" as="geometry">
            <mxPoint x="190" y="530" as="sourcePoint" />
            <mxPoint x="-95.70000000000005" y="346.24000000000024" as="targetPoint" />
          </mxGeometry>
        </mxCell>
        <mxCell id="sHWLW5Rp5QebHNMf11we-35" value="issue_date" style="ellipse;whiteSpace=wrap;html=1;align=center;fontSize=15;" vertex="1" parent="1">
          <mxGeometry x="-30" y="389" width="150" height="40" as="geometry" />
        </mxCell>
        <mxCell id="sHWLW5Rp5QebHNMf11we-158" value="policy" style="ellipse;shape=doubleEllipse;margin=3;whiteSpace=wrap;html=1;align=center;fontSize=15;" vertex="1" parent="1">
          <mxGeometry x="-190" y="310" width="100" height="40" as="geometry" />
        </mxCell>
        <mxCell id="sHWLW5Rp5QebHNMf11we-159" value="policy_number" style="ellipse;whiteSpace=wrap;html=1;align=center;fontSize=15;" vertex="1" parent="1">
          <mxGeometry x="-413" y="169.25" width="150" height="40" as="geometry" />
        </mxCell>
        <mxCell id="sHWLW5Rp5QebHNMf11we-160" value="coverage_summary" style="ellipse;whiteSpace=wrap;html=1;align=center;fontSize=15;" vertex="1" parent="1">
          <mxGeometry x="-413" y="229.75" width="150" height="40" as="geometry" />
        </mxCell>
        <mxCell id="sHWLW5Rp5QebHNMf11we-161" value="start_date" style="ellipse;whiteSpace=wrap;html=1;align=center;fontSize=15;" vertex="1" parent="1">
          <mxGeometry x="-413" y="298.75" width="150" height="40" as="geometry" />
        </mxCell>
        <mxCell id="sHWLW5Rp5QebHNMf11we-162" value="" style="endArrow=none;html=1;rounded=0;exitX=1;exitY=0.5;exitDx=0;exitDy=0;entryX=0.42;entryY=-0.018;entryDx=0;entryDy=0;entryPerimeter=0;" edge="1" parent="1" source="sHWLW5Rp5QebHNMf11we-159" target="sHWLW5Rp5QebHNMf11we-158">
          <mxGeometry width="50" height="50" relative="1" as="geometry">
            <mxPoint x="-243" y="249.75" as="sourcePoint" />
            <mxPoint x="-193" y="199.75" as="targetPoint" />
          </mxGeometry>
        </mxCell>
        <mxCell id="sHWLW5Rp5QebHNMf11we-163" value="" style="endArrow=none;html=1;rounded=0;exitX=1;exitY=0.5;exitDx=0;exitDy=0;entryX=0;entryY=0;entryDx=0;entryDy=0;" edge="1" parent="1" source="sHWLW5Rp5QebHNMf11we-160" target="sHWLW5Rp5QebHNMf11we-158">
          <mxGeometry width="50" height="50" relative="1" as="geometry">
            <mxPoint x="-253" y="309.75" as="sourcePoint" />
            <mxPoint x="-203" y="259.75" as="targetPoint" />
          </mxGeometry>
        </mxCell>
        <mxCell id="sHWLW5Rp5QebHNMf11we-164" value="" style="endArrow=none;html=1;rounded=0;entryX=0;entryY=0.5;entryDx=0;entryDy=0;exitX=1;exitY=0.5;exitDx=0;exitDy=0;" edge="1" parent="1" source="sHWLW5Rp5QebHNMf11we-161" target="sHWLW5Rp5QebHNMf11we-158">
          <mxGeometry width="50" height="50" relative="1" as="geometry">
            <mxPoint x="-273" y="389.75" as="sourcePoint" />
            <mxPoint x="-223" y="339.75" as="targetPoint" />
          </mxGeometry>
        </mxCell>
        <mxCell id="sHWLW5Rp5QebHNMf11we-165" value="" style="endArrow=none;html=1;rounded=0;entryX=0.368;entryY=0.966;entryDx=0;entryDy=0;entryPerimeter=0;exitX=1;exitY=0.5;exitDx=0;exitDy=0;" edge="1" parent="1" source="sHWLW5Rp5QebHNMf11we-166" target="sHWLW5Rp5QebHNMf11we-158">
          <mxGeometry width="50" height="50" relative="1" as="geometry">
            <mxPoint x="-273" y="399.75" as="sourcePoint" />
            <mxPoint x="-223" y="349.75" as="targetPoint" />
          </mxGeometry>
        </mxCell>
        <mxCell id="sHWLW5Rp5QebHNMf11we-166" value="end_date" style="ellipse;whiteSpace=wrap;html=1;align=center;fontSize=15;" vertex="1" parent="1">
          <mxGeometry x="-413" y="348.75" width="150" height="40" as="geometry" />
        </mxCell>
        <mxCell id="sHWLW5Rp5QebHNMf11we-34" value="issuing_country" style="ellipse;whiteSpace=wrap;html=1;align=center;fontSize=15;" vertex="1" parent="1">
          <mxGeometry x="-30" y="339" width="150" height="40" as="geometry" />
        </mxCell>
        <mxCell id="sHWLW5Rp5QebHNMf11we-167" value="status" style="ellipse;whiteSpace=wrap;html=1;align=center;fontSize=15;" vertex="1" parent="1">
          <mxGeometry x="-413" y="400" width="150" height="40" as="geometry" />
        </mxCell>
        <mxCell id="sHWLW5Rp5QebHNMf11we-168" value="" style="endArrow=none;html=1;rounded=0;entryX=0.5;entryY=1;entryDx=0;entryDy=0;exitX=1;exitY=0.5;exitDx=0;exitDy=0;" edge="1" parent="1" source="sHWLW5Rp5QebHNMf11we-167" target="sHWLW5Rp5QebHNMf11we-158">
          <mxGeometry width="50" height="50" relative="1" as="geometry">
            <mxPoint x="-180" y="410" as="sourcePoint" />
            <mxPoint x="-130" y="360" as="targetPoint" />
          </mxGeometry>
        </mxCell>
        <mxCell id="sHWLW5Rp5QebHNMf11we-169" value="insurance_company" style="ellipse;whiteSpace=wrap;html=1;align=center;fontSize=15;" vertex="1" parent="1">
          <mxGeometry x="-414" y="100" width="150" height="40" as="geometry" />
        </mxCell>
        <mxCell id="sHWLW5Rp5QebHNMf11we-170" value="" style="endArrow=none;html=1;rounded=0;exitX=1;exitY=0.5;exitDx=0;exitDy=0;entryX=0.5;entryY=0;entryDx=0;entryDy=0;" edge="1" parent="1" source="sHWLW5Rp5QebHNMf11we-169" target="sHWLW5Rp5QebHNMf11we-158">
          <mxGeometry width="50" height="50" relative="1" as="geometry">
            <mxPoint x="-210" y="160" as="sourcePoint" />
            <mxPoint x="-160" y="110" as="targetPoint" />
          </mxGeometry>
        </mxCell>
        <mxCell id="sHWLW5Rp5QebHNMf11we-173" value="medical_records" style="ellipse;shape=doubleEllipse;margin=3;whiteSpace=wrap;html=1;align=center;fontSize=15;" vertex="1" parent="1">
          <mxGeometry x="-100" y="579" width="130" height="51" as="geometry" />
        </mxCell>
        <mxCell id="sHWLW5Rp5QebHNMf11we-174" value="address_type" style="ellipse;whiteSpace=wrap;html=1;align=center;fontSize=15;" vertex="1" parent="1">
          <mxGeometry x="-195" y="710.5" width="150" height="40" as="geometry" />
        </mxCell>
        <mxCell id="sHWLW5Rp5QebHNMf11we-175" value="department" style="ellipse;whiteSpace=wrap;html=1;align=center;fontSize=15;" vertex="1" parent="1">
          <mxGeometry x="-195" y="779.5" width="150" height="40" as="geometry" />
        </mxCell>
        <mxCell id="sHWLW5Rp5QebHNMf11we-176" value="municipality" style="ellipse;whiteSpace=wrap;html=1;align=center;fontSize=15;" vertex="1" parent="1">
          <mxGeometry x="-195" y="840" width="150" height="40" as="geometry" />
        </mxCell>
        <mxCell id="sHWLW5Rp5QebHNMf11we-177" value="address_text" style="ellipse;whiteSpace=wrap;html=1;align=center;fontSize=15;" vertex="1" parent="1">
          <mxGeometry x="-195" y="890" width="150" height="40" as="geometry" />
        </mxCell>
        <mxCell id="sHWLW5Rp5QebHNMf11we-182" value="coordinates_lat" style="ellipse;whiteSpace=wrap;html=1;align=center;fontSize=15;" vertex="1" parent="1">
          <mxGeometry x="-195" y="940.5" width="150" height="40" as="geometry" />
        </mxCell>
        <mxCell id="sHWLW5Rp5QebHNMf11we-183" value="coordinates_lon" style="ellipse;whiteSpace=wrap;html=1;align=center;fontSize=15;" vertex="1" parent="1">
          <mxGeometry x="-185" y="1001" width="150" height="40" as="geometry" />
        </mxCell>
        <mxCell id="sHWLW5Rp5QebHNMf11we-184" value="postal_code" style="ellipse;whiteSpace=wrap;html=1;align=center;fontSize=15;" vertex="1" parent="1">
          <mxGeometry x="-185" y="1060.5" width="150" height="40" as="geometry" />
        </mxCell>
        <mxCell id="sHWLW5Rp5QebHNMf11we-185" value="issue_date" style="ellipse;whiteSpace=wrap;html=1;align=center;fontSize=15;" vertex="1" parent="1">
          <mxGeometry x="-185" y="1120" width="150" height="40" as="geometry" />
        </mxCell>
        <mxCell id="sHWLW5Rp5QebHNMf11we-199" value="" style="endArrow=none;html=1;rounded=0;exitX=1;exitY=0.5;exitDx=0;exitDy=0;entryX=0.589;entryY=1.005;entryDx=0;entryDy=0;entryPerimeter=0;" edge="1" parent="1" source="sHWLW5Rp5QebHNMf11we-52" target="sHWLW5Rp5QebHNMf11we-41">
          <mxGeometry width="50" height="50" relative="1" as="geometry">
            <mxPoint x="-210" y="660" as="sourcePoint" />
            <mxPoint x="-160" y="610" as="targetPoint" />
          </mxGeometry>
        </mxCell>
        <mxCell id="sHWLW5Rp5QebHNMf11we-200" value="" style="endArrow=none;html=1;rounded=0;entryX=0.654;entryY=0.972;entryDx=0;entryDy=0;entryPerimeter=0;exitX=0.976;exitY=0.301;exitDx=0;exitDy=0;exitPerimeter=0;" edge="1" parent="1" source="sHWLW5Rp5QebHNMf11we-53" target="sHWLW5Rp5QebHNMf11we-41">
          <mxGeometry width="50" height="50" relative="1" as="geometry">
            <mxPoint x="-250" y="870" as="sourcePoint" />
            <mxPoint x="-200" y="820" as="targetPoint" />
          </mxGeometry>
        </mxCell>
      </root>
    </mxGraphModel>
  </diagram>
</mxfile>
